<?xml version="1.0" standalone="no"?>
<!DOCTYPE svg PUBLIC "-//W3C//DTD SVG 20010904//EN"
 "http://www.w3.org/TR/2001/REC-SVG-20010904/DTD/svg10.dtd">
<svg version="1.0" xmlns="http://www.w3.org/2000/svg"
 width="512.000000pt" height="512.000000pt" viewBox="0 0 512.000000 512.000000"
 preserveAspectRatio="xMidYMid meet">
<metadata>
Created by potrace 1.14, written by Peter Selinger 2001-2017
</metadata>
<g transform="translate(0.000000,512.000000) scale(0.100000,-0.100000)"
fill="#000000" stroke="none">
<path d="M1082 4881 c-16 -66 -15 -268 3 -335 58 -220 269 -390 525 -422 19
-2 42 -6 50 -9 8 -2 49 -7 90 -10 41 -4 82 -9 91 -10 8 -2 56 -6 105 -10 49
-4 103 -9 119 -10 17 -2 52 -4 78 -4 l48 -1 -39 -47 c-66 -81 -92 -159 -96
-285 -8 -241 109 -531 277 -684 167 -153 348 -145 515 23 150 152 253 405 254
629 1 143 -32 248 -103 329 l-31 35 28 1 c16 1 43 2 59 4 17 1 66 5 110 9 318
27 488 59 585 113 195 107 296 270 297 473 1 83 -16 223 -28 234 -3 3 -6 0 -6
-6 -2 -50 -52 -172 -89 -218 -75 -93 -198 -178 -306 -212 -100 -31 -146 -38
-393 -63 -38 -4 -86 -8 -105 -10 -263 -27 -831 -27 -1120 0 -19 1 -67 6 -106
9 -39 4 -79 8 -90 10 -10 2 -48 7 -84 11 -36 4 -74 9 -85 11 -11 2 -33 7 -49
10 -234 42 -443 234 -480 439 -8 41 -12 40 -24 -4z"/>
<path d="M1807 3934 c-1 -1 -54 -4 -117 -8 -63 -4 -131 -9 -150 -12 -385 -56
-577 -107 -795 -214 -293 -143 -475 -342 -540 -591 -25 -91 -25 -272 -1 -369
21 -83 58 -183 91 -245 42 -77 67 -120 81 -136 8 -8 14 -20 14 -26 0 -6 3 -13
8 -15 4 -1 23 -23 42 -48 38 -50 34 -45 106 -121 252 -268 658 -503 1071 -619
l62 -17 36 41 c52 61 102 170 112 246 18 139 -19 254 -111 346 -71 71 -122 92
-211 89 -76 -2 -139 -32 -211 -98 -30 -27 -56 -48 -58 -46 -10 11 -56 113 -79
174 -69 183 -92 382 -61 518 19 83 81 179 142 222 l43 30 42 -24 c307 -177
592 -554 728 -963 53 -161 106 -447 90 -491 -3 -8 -33 -35 -67 -60 -126 -95
-316 -296 -453 -479 l-72 -96 90 -134 c49 -73 108 -160 131 -192 22 -33 37
-63 33 -67 -8 -7 -149 -90 -228 -134 -112 -61 -141 -78 -152 -89 -9 -8 90 -11
392 -11 354 0 402 2 392 15 -7 8 -23 27 -37 43 -14 15 -42 56 -63 90 -148 242
-76 510 173 641 184 97 432 95 611 -6 268 -151 313 -488 98 -732 -23 -25 -37
-46 -32 -47 25 -3 752 -4 770 -1 22 4 -67 61 -299 190 -38 20 -68 40 -68 44 0
4 56 90 125 192 69 102 125 190 125 197 0 32 -225 304 -361 436 -82 80 -217
193 -231 193 -11 0 14 216 37 315 108 469 409 918 757 1131 68 42 80 40 142
-21 138 -134 160 -368 62 -669 -19 -57 -77 -193 -93 -215 -1 -2 -25 17 -52 42
-77 72 -142 101 -227 101 -300 -1 -427 -427 -201 -677 l42 -46 145 48 c396
133 679 297 938 545 193 185 352 450 387 643 40 230 15 393 -87 563 -187 312
-630 532 -1198 596 -25 2 -58 6 -75 9 -115 15 -337 27 -331 17 19 -31 28 -282
14 -382 -22 -159 -104 -357 -207 -501 -73 -101 -247 -249 -295 -249 -8 0 -17
-4 -20 -9 -3 -5 -23 -12 -43 -16 -21 -5 -45 -10 -53 -12 -71 -16 -191 -2 -275
34 -146 62 -297 219 -392 408 -40 79 -89 219 -102 292 -6 32 -13 69 -16 83
-14 67 -6 249 15 327 l8 31 -44 -1 c-25 -1 -46 -2 -47 -3z"/>
</g>
</svg>
